<svg width="56" height="56" viewBox="0 0 56 56" fill="none" xmlns="http://www.w3.org/2000/svg">
<g clip-path="url(#clip0)" filter="url(#filter0_d)">
<path d="M46 40.48C46 41.0529 45.7724 41.6023 45.3674 42.0074C44.9623 42.4124 44.4129 42.64 43.84 42.64H12.16C11.5871 42.64 11.0377 42.4124 10.6326 42.0074C10.2276 41.6023 10 41.0529 10 40.48V14.2H46V40.48Z" fill="#F39C12"/>
<path d="M11.44 7H44.56V14.2H11.44V7Z" fill="#E57D22"/>
<path d="M44.56 14.2H41.68V9.88L44.56 7V14.2ZM11.44 14.2H14.32V9.88L11.44 7V14.2Z" fill="#F39C12"/>
<path d="M14.32 9.88V14.2H10L14.32 9.88ZM41.68 9.88V14.2H46L41.68 9.88Z" fill="#F1C40F"/>
<path opacity="0.3" d="M19.36 23.2C20.3541 23.2 21.16 22.3941 21.16 21.4C21.16 20.4059 20.3541 19.6 19.36 19.6C18.3659 19.6 17.56 20.4059 17.56 21.4C17.56 22.3941 18.3659 23.2 19.36 23.2Z" fill="black"/>
<path opacity="0.3" d="M36.64 23.2C37.6341 23.2 38.44 22.3941 38.44 21.4C38.44 20.4059 37.6341 19.6 36.64 19.6C35.6459 19.6 34.84 20.4059 34.84 21.4C34.84 22.3941 35.6459 23.2 36.64 23.2Z" fill="black"/>
<path d="M36.6667 21.6667C36.6667 26.0847 32.7865 29.6667 28 29.6667C23.2135 29.6667 19.3333 26.085 19.3333 21.6667" stroke="white" stroke-width="6" stroke-miterlimit="10" stroke-linecap="round"/>
</g>
<defs>
<filter id="filter0_d" x="0" y="0" width="56" height="56" filterUnits="userSpaceOnUse" color-interpolation-filters="sRGB">
<feFlood flood-opacity="0" result="BackgroundImageFix"/>
<feColorMatrix in="SourceAlpha" type="matrix" values="0 0 0 0 0 0 0 0 0 0 0 0 0 0 0 0 0 0 127 0" result="hardAlpha"/>
<feOffset dy="3"/>
<feGaussianBlur stdDeviation="5"/>
<feComposite in2="hardAlpha" operator="out"/>
<feColorMatrix type="matrix" values="0 0 0 0 0 0 0 0 0 0 0 0 0 0 0 0 0 0 0.25 0"/>
<feBlend mode="normal" in2="BackgroundImageFix" result="effect1_dropShadow"/>
<feBlend mode="normal" in="SourceGraphic" in2="effect1_dropShadow" result="shape"/>
</filter>
<clipPath id="clip0">
<rect width="36" height="36" fill="white" transform="translate(10 7)"/>
</clipPath>
</defs>
</svg>
