<svg xmlns="http://www.w3.org/2000/svg" viewBox="0 0 194.51 171.43"><defs><style>.cls-1{fill:#acee81;}.cls-2{fill:#6fbf42;}.cls-3{fill:#006838;}.cls-4{fill:#8dc63f;}.cls-5,.cls-6,.cls-7,.cls-8{fill:none;}.cls-6,.cls-8{stroke:#ef6467;}.cls-14,.cls-6,.cls-7,.cls-8{stroke-linecap:round;stroke-miterlimit:10;}.cls-14,.cls-6,.cls-7{stroke-width:5px;}.cls-14,.cls-7{stroke:#eeb239;}.cls-8{stroke-width:3.5px;}.cls-9{fill:#92cebe;}.cls-10{fill:#ef6467;}.cls-11{fill:#27aae1;}.cls-12{fill:#00a651;}.cls-13,.cls-14{fill:#eeb239;}</style></defs><g id="Layer_2" data-name="Layer 2"><g id="Layer_1-2" data-name="Layer 1"><path class="cls-1" d="M32.44,165l33.25-7c-16.17-11.73-26.76-26.95-31.26-46L15.52,141.1h0v0l.15-.23c1.77,10,7.75,17.8,16.67,24"/><path class="cls-2" d="M103.24,149.84c-6.4,3.07-21.25-9.34-33.77-28.46C56.55,101.68,51,82.32,57,78.14a4.48,4.48,0,0,1,.47-.28,3.65,3.65,0,0,0-1.83,1.48L34.45,112c4.5,19.07,15.09,34.29,31.26,46l36.55-7.68a3.6,3.6,0,0,0,2-1.16,4,4,0,0,1-.4.32A4.26,4.26,0,0,1,103.24,149.84Z"/><path class="cls-3" d="M91.43,106.25C78.83,87,63.9,74.58,57.55,77.84a4.48,4.48,0,0,0-.47.28c-6,4.18-.48,23.54,12.44,43.24,12.49,19.07,27.29,31.48,33.72,28.48a3.25,3.25,0,0,0,.57-.33,4,4,0,0,0,.51-.41l-.06.07.11-.09,0,0C109.56,144.11,104,125.34,91.43,106.25Z"/><path class="cls-4" d="M15.65,140.9q-7.51,12-15,24.08c-1.92,3.07.84,7.13,4.3,6.35L32.55,165C23.82,159.11,17.76,151.37,15.65,140.9Z"/><path class="cls-5" d="M103.81,149.51a3.25,3.25,0,0,1-.57.33,4.26,4.26,0,0,0,.62-.35,4,4,0,0,0,.4-.32l.06-.07A4,4,0,0,1,103.81,149.51Z"/><path class="cls-6" d="M151.82,65.87s-17.48-10.94-16.77,10.45-16.83,10.5-16.83,10.5S99.78,76.39,101.38,97.31s-16.63,10.36-16.63,10.36"/><path class="cls-7" d="M154.15,143.48s-28.7-28.42-61-11.51"/><path class="cls-7" d="M69.79,92.42S93.17,76.69,75.12,49"/><path class="cls-8" d="M116,1.75c5.11,7.3,17.37,43.86-7.14,43-8.16-.28-8.34-12.81-6.88-15.75,3.83-7.71,13.71-5.65,15.59,4.6,1.6,8.65-4.84,19.69-11.77,24.5"/><polygon class="cls-9" points="151.59 100.07 149.65 95.63 144.9 94.72 148.51 91.5 147.91 86.7 152.09 89.15 156.47 87.09 155.44 91.82 158.74 95.35 153.93 95.83 151.59 100.07"/><polygon class="cls-10" points="81.73 19.35 79.79 14.91 75.04 14 78.65 10.79 78.05 5.99 82.23 8.43 86.61 6.38 85.57 11.1 88.88 14.63 84.06 15.11 81.73 19.35"/><polygon class="cls-10" points="130.35 162.85 128.41 158.41 123.66 157.5 127.28 154.29 126.68 149.49 130.85 151.93 135.23 149.88 134.2 154.6 137.5 158.13 132.69 158.61 130.35 162.85"/><polygon class="cls-11" points="174.72 66.91 172.78 62.48 168.02 61.56 171.64 58.35 171.04 53.55 175.22 55.99 179.59 53.94 178.56 58.66 181.87 62.2 177.05 62.67 174.72 66.91"/><circle class="cls-10" cx="118.28" cy="108.53" r="4.1"/><circle class="cls-12" cx="96" cy="75.03" r="2.83"/><circle class="cls-1" cx="171.32" cy="121.94" r="4.66"/><circle class="cls-13" cx="147.83" cy="34.73" r="4.81"/><line class="cls-14" x1="192.01" y1="97.02" x2="174.95" y2="97.87"/></g></g></svg>