<svg width="467" height="489" viewBox="0 0 467 489" fill="none" xmlns="http://www.w3.org/2000/svg">
<path d="M467 244.5C467 379.534 362.458 489 233.5 489C104.542 489 0 379.534 0 244.5C0 109.466 104.542 0 233.5 0C362.458 0 467 109.466 467 244.5Z" fill="#F39C14" fill-opacity="0.08"/>
<path d="M391 244.5C391 331.485 320.485 402 233.5 402C146.515 402 76 331.485 76 244.5C76 157.515 146.515 87 233.5 87C320.485 87 391 157.515 391 244.5Z" fill="#F39C14" fill-opacity="0.08"/>
<path d="M391 244.5C391 331.485 320.485 402 233.5 402C146.515 402 76 331.485 76 244.5C76 157.515 146.515 87 233.5 87C320.485 87 391 157.515 391 244.5Z" fill="#F39C14" fill-opacity="0.08"/>
<path d="M123.671 197.911C121.833 191.519 126.63 185.147 133.281 185.147H333.719C340.37 185.147 345.167 191.519 343.329 197.911L303.681 335.764C302.449 340.049 298.529 343 294.071 343H172.929C168.471 343 164.551 340.049 163.319 335.764L123.671 197.911Z" fill="#FEC643"/>
<path d="M198.315 175.675C198.315 166.744 202.142 158.179 208.953 151.863C215.764 145.548 225.002 142 234.635 142C244.268 142 253.506 145.548 260.317 151.863C267.128 158.179 270.955 166.744 270.955 175.675L262.393 175.675C262.393 168.85 259.468 162.303 254.263 157.477C249.057 152.65 241.997 149.939 234.635 149.939C227.273 149.939 220.213 152.65 215.007 157.477C209.802 162.303 206.877 168.85 206.877 175.675H198.315Z" fill="#3A3A3A"/>
<path d="M198.315 175.675L206.881 175.675V186.199H198.315V175.675Z" fill="#3A3A3A"/>
<path d="M262.389 175.675L270.955 175.675V186.199H262.389V175.675Z" fill="#3A3A3A"/>
<path d="M198.315 186.199H206.881V195.723C206.881 196.275 206.433 196.723 205.881 196.723H199.315C198.763 196.723 198.315 196.275 198.315 195.723V186.199Z" fill="#3A3A3A"/>
<path d="M262.389 186.199H270.955V195.723C270.955 196.275 270.507 196.723 269.955 196.723H263.389C262.837 196.723 262.389 196.275 262.389 195.723V186.199Z" fill="#3A3A3A"/>
<path d="M206 192.796C206 194.588 204.433 196.041 202.5 196.041C200.567 196.041 199 194.588 199 192.796C199 191.004 200.567 189.551 202.5 189.551C204.433 189.551 206 191.004 206 192.796Z" fill="#FAFAFA"/>
<path d="M270 192.796C270 194.588 268.433 196.041 266.5 196.041C264.567 196.041 263 194.588 263 192.796C263 191.004 264.567 189.551 266.5 189.551C268.433 189.551 270 191.004 270 192.796Z" fill="#FAFAFA"/>
<circle cx="202.5" cy="244.5" r="12.5" fill="#272727"/>
<circle cx="267.5" cy="244.5" r="12.5" fill="#272727"/>
<circle cx="270" cy="239" r="5" fill="white"/>
<circle cx="205" cy="239" r="5" fill="white"/>
<path d="M250.084 292.159C251.554 291.395 252.143 289.566 251.168 288.227C249.599 286.073 247.61 284.246 245.309 282.862C242.148 280.96 238.523 279.97 234.834 280.001C231.145 280.031 227.536 281.082 224.407 283.036C222.13 284.457 220.171 286.318 218.639 288.497C217.686 289.853 218.305 291.671 219.788 292.411V292.411C221.271 293.151 223.05 292.52 224.088 291.229C225.067 290.011 226.248 288.96 227.585 288.125C229.775 286.757 232.301 286.022 234.884 286C237.466 285.979 240.004 286.672 242.216 288.003C243.568 288.816 244.765 289.847 245.765 291.049C246.824 292.323 248.614 292.923 250.084 292.159V292.159Z" fill="#272727"/>
</svg>
